{"accessors":[{"bufferView":0,"componentType":5123,"count":42996,"max":[7679],"min":[0],"type":"SCALAR"},{"bufferView":1,"componentType":5126,"count":7680,"max":[0.06784020364284515,1.8158180713653564,1.8159704208374023],"min":[-0.06784011423587799,-1.8158180713653564,-1.815970540046692],"type":"VEC3"},{"bufferView":2,"componentType":5126,"count":7680,"max":[0.999986469745636,0.9968423843383789,0.9979299902915955],"min":[-0.999988317489624,-0.9968423843383789,-0.997929036617279],"type":"VEC3"},{"bufferView":3,"componentType":5126,"count":7680,"max":[0.9978707432746887,0.9613913297653198,0.9684865474700928,1.0],"min":[-0.9978688359260559,-0.762846827507019,-0.999976634979248,1.0],"type":"VEC4"},{"bufferView":4,"componentType":5126,"count":7680,"max":[0.9998512268066406,0.999851151558687],"min":[0.00014884844131302088,0.01662003993988037],"type":"VEC2"},{"bufferView":5,"componentType":5126,"count":120,"max":[4.958333333333333],"min":[0.0],"type":"SCALAR"},{"bufferView":6,"componentType":5126,"count":120,"max":[0.0,1.0,-0.0,0.9996573328971863],"min":[0.0,-8.742277657347586e-08,-0.0,-1.0],"type":"VEC4"}],"animations":[{"channels":[{"sampler":0,"target":{"node":2,"path":"rotation"}}],"extensions":{"S8S_v3d_animation_data":{"auto":true,"loop":"REPEAT","offset":0.0,"repeatCount":1.0,"repeatInfinite":true}},"name":"obj","samplers":[{"input":5,"interpolation":"LINEAR","output":6}]}],"asset":{"generator":"Soft8Soft Verge3D for Blender add-on","version":"2.0"},"bufferViews":[{"buffer":0,"byteLength":85992,"byteOffset":0,"target":34963},{"buffer":0,"byteLength":92160,"byteOffset":85992,"target":34962},{"buffer":0,"byteLength":92160,"byteOffset":178152,"target":34962},{"buffer":0,"byteLength":122880,"byteOffset":270312,"target":34962},{"buffer":0,"byteLength":61440,"byteOffset":393192,"target":34962},{"buffer":0,"byteLength":480,"byteOffset":454632},{"buffer":0,"byteLength":1920,"byteOffset":455112}],"buffers":[{"byteLength":457032,"uri":"tongbi.bin"}],"cameras":[{"extensions":{"S8S_v3d_camera_data":{"controls":"ORBIT","enablePan":true,"moveSpeed":1.0,"orbitMaxDistance":100.0,"orbitMaxPolarAngle":3.1415927410125732,"orbitMinDistance":0.0,"orbitMinPolarAngle":0.0,"orbitTarget":[1.0950440554324814e-08,4.656612873077393e-10,6.95532742511773e-09],"rotateSpeed":1.0,"viewportFitInitialAspect":1.7777777777777777,"viewportFitType":"AUTO"}},"name":"mat","perspective":{"aspectRatio":1.7777777777777777,"yfov":0.39959652046304894,"zfar":1000.0,"znear":0.10000000149011612},"type":"perspective"}],"extensions":{"S8S_v3d_data":{"lights":[{"color":[1.0,1.0,1.0],"constantAttenuation":1.0,"decay":2,"distance":31.622776955095866,"intensity":1000.0,"linearAttenuation":0.0,"name":"Light","profile":"blender","quadraticAttenuation":0.03162277624827173,"shadow":{"bias":-0.0018,"cameraFar":31.622776955095866,"cameraFov":0,"cameraNear":0.05000000074505806,"enabled":true,"expBias":2.5,"mapSize":512,"radius":1.0,"slopeScaledBias":2.5},"type":"point"}]}},"extensionsUsed":["S8S_v3d_texture_data","S8S_v3d_material_data","S8S_v3d_camera_data","S8S_v3d_data","S8S_v3d_mesh_data","S8S_v3d_node_data","S8S_v3d_animation_data","S8S_v3d_scene_data"],"images":[{"uri":"manshe.jpg"},{"uri":"faxian.jpg"},{"uri":"jinshu.jpg"},{"uri":"aotu.jpg"},{"uri":"jinshu.hdr"}],"materials":[{"extensions":{"S8S_v3d_material_data":{"nodeGraph":{"edges":[{"fromNode":1,"fromOutput":0,"toInput":0,"toNode":0},{"fromNode":3,"fromOutput":0,"toInput":0,"toNode":1},{"fromNode":5,"fromOutput":0,"toInput":1,"toNode":2},{"fromNode":2,"fromOutput":0,"toInput":4,"toNode":1},{"fromNode":7,"fromOutput":0,"toInput":5,"toNode":8},{"fromNode":4,"fromOutput":0,"toInput":1,"toNode":7},{"fromNode":6,"fromOutput":0,"toInput":2,"toNode":8},{"fromNode":8,"fromOutput":0,"toInput":19,"toNode":1}],"nodes":[{"inputs":[[0,0,0,0],[0,0,0,0],[0.0,0.0,0.0]],"is_active_output":true,"name":"Material Output","outputs":[],"type":"OUTPUT_MATERIAL_BL"},{"inputs":[[0.800000011920929,0.800000011920929,0.800000011920929,1.0],0.0,[1.0,0.20000000298023224,0.10000000149011612],[0.800000011920929,0.800000011920929,0.800000011920929,1.0],0.0,0.5,0.0,0.5,0.0,0.0,0.0,0.5,0.0,0.029999999329447746,1.4500000476837158,0.0,0.0,[0.0,0.0,0.0,1.0],1.0,[0.0,0.0,0.0],[0.0,0.0,0.0],[0.0,0.0,0.0]],"is_active_output":false,"name":"原理化BSDF","outputs":[[0,0,0,0]],"type":"BSDF_PRINCIPLED_BL"},{"inputs":[0.6083916425704956,[0.0,0.0,0.0,1.0]],"is_active_output":false,"name":"反转","outputs":[[0.0,0.0,0.0,0.0]],"type":"INVERT_BL"},{"inputs":[[0.0,0.0,0.0]],"is_active_output":false,"name":"图像纹理.001","outputs":[[0.0,0.0,0.0,0.0],0.0],"projection":"FLAT","projectionBlend":0.0,"texture":0,"type":"TEX_IMAGE_BL"},{"inputs":[[0.0,0.0,0.0]],"is_active_output":false,"name":"图像纹理.003","outputs":[[0.0,0.0,0.0,0.0],0.0],"projection":"FLAT","projectionBlend":0.0,"texture":1,"type":"TEX_IMAGE_BL"},{"inputs":[[0.0,0.0,0.0]],"is_active_output":false,"name":"图像纹理.002","outputs":[[0.0,0.0,0.0,0.0],0.0],"projection":"FLAT","projectionBlend":0.0,"texture":2,"type":"TEX_IMAGE_BL"},{"inputs":[[0.0,0.0,0.0]],"is_active_output":false,"name":"图像纹理.004","outputs":[[0.0,0.0,0.0,0.0],0.0],"projection":"FLAT","projectionBlend":0.0,"texture":3,"type":"TEX_IMAGE_BL"},{"inputs":[0.10000000149011612,[0.5,0.5,1.0,1.0]],"is_active_output":false,"name":"法线贴图","outputs":[[0.0,0.0,0.0]],"type":"NORMAL_MAP_BL","uvLayer":""},{"inputs":[1.0,0.019999999552965164,1.0,1.0,1.0,[0.0,0.0,0.0]],"invert":false,"is_active_output":false,"name":"凹凸","outputs":[[0.0,0.0,0.0]],"type":"BUMP_BL"}]},"useCastShadows":true}},"name":"材质"},{"extensions":{"S8S_v3d_material_data":{"nodeGraph":{"edges":[{"fromNode":0,"fromOutput":0,"toInput":0,"toNode":1}],"nodes":[{"inputs":[[0.0,0.0,0.0]],"is_active_output":false,"name":"环境纹理","outputs":[[0.0,0.0,0.0,0.0]],"projection":"EQUIRECTANGULAR","texture":4,"type":"TEX_ENVIRONMENT_BL"},{"inputs":[[0,0,0,0],[0,0,0,0]],"is_active_output":true,"name":"World Output","outputs":[],"type":"OUTPUT_WORLD_BL"}]},"useCastShadows":true}},"name":"Verge3D_Environment_World"}],"meshes":[{"extensions":{"S8S_v3d_mesh_data":{"colorLayers":{},"uvLayers":{"UV 贴图":"TEXCOORD_0"}}},"name":"平面.001","primitives":[{"attributes":{"NORMAL":2,"POSITION":1,"TANGENT":3,"TEXCOORD_0":4},"indices":0,"material":0,"mode":4}]}],"nodes":[{"camera":0,"extensions":{"S8S_v3d_node_data":{"frustumCulling":true,"groupNames":["Collection"],"hidden":false,"renderOrder":0}},"name":"xiangji","rotation":[-0.0067516532726585865,0.6957923173904419,0.006541347596794367,0.7181814908981323],"scale":[0.9999999403953552,1.0,0.9999999403953552],"translation":[20.187705993652344,0.3798040747642517,0.639474630355835]},{"extensions":{"S8S_v3d_node_data":{"frustumCulling":true,"groupNames":["Collection"],"hidden":false,"light":0,"renderOrder":0}},"name":"Light","rotation":[-0.2841663062572479,0.7269423604011536,0.34203389286994934,0.5232754945755005],"scale":[0.9999999403953552,0.9999997615814209,0.9999998807907104],"translation":[4.076245307922363,5.903861999511719,-1.0054539442062378]},{"extensions":{"S8S_v3d_node_data":{"frustumCulling":true,"groupNames":["Collection"],"hidden":false,"renderOrder":0,"useShadows":true}},"mesh":0,"name":"obj","translation":[1.0950440554324814e-08,4.656612873077393e-10,6.95532742511773e-09]}],"samplers":[{}],"scene":0,"scenes":[{"extensions":{"S8S_v3d_scene_data":{"aaMethod":"AUTO","iblEnvironmentMode":"PMREM","physicallyCorrectLights":true,"pmremMaxTileSize":512,"shadowMap":{"esmDistanceScale":1.0,"renderReverseSided":false,"renderSingleSided":true,"type":"PCFPOISSON"},"toneMapping":{"type":"filmicBlender"},"worldMaterial":1}},"extras":{"animFrameRate":24,"coordSystem":"Z_UP_RIGHT"},"name":"Scene","nodes":[1,2,0]}],"textures":[{"extensions":{"S8S_v3d_texture_data":{"colorSpace":"srgb"}},"name":"manshe.jpg","sampler":0,"source":0},{"extensions":{"S8S_v3d_texture_data":{"colorSpace":"srgb"}},"name":"faxian.jpg","sampler":0,"source":1},{"extensions":{"S8S_v3d_texture_data":{"colorSpace":"srgb"}},"name":"jinshu.jpg","sampler":0,"source":2},{"extensions":{"S8S_v3d_texture_data":{"colorSpace":"srgb"}},"name":"aotu.jpg","sampler":0,"source":3},{"extensions":{"S8S_v3d_texture_data":{"colorSpace":"linear"}},"name":"jinshu.hdr","sampler":0,"source":4}]}
